<?xml version="1.0" encoding="iso-8859-1"?>
<!-- Generator: Adobe Illustrator 24.3.0, SVG Export Plug-In . SVG Version: 6.00 Build 0)  -->
<svg version="1.1" id="layer_1" xmlns="http://www.w3.org/2000/svg" xmlns:xlink="http://www.w3.org/1999/xlink" x="0px" y="0px"
	 viewBox="0 0 48 48" style="enable-background:new 0 0 48 48;" xml:space="preserve">
<path style="fill:none;stroke:#000000;stroke-width:3;stroke-linecap:round;stroke-linejoin:round;stroke-miterlimit:10;" d="
	M4.5,4.5h11v33.566c0,3.001-2.462,5.434-5.5,5.434h0c-3.038,0-5.5-2.433-5.5-5.434V4.5z"/>
<path d="M10,36c-1.105,0-2,0.895-2,2s0.895,2,2,2s2-0.895,2-2S11.105,36,10,36z"/>
<g>
	<path d="M40.05,15.73l-7.78-7.78c-0.28-0.28-0.66-0.44-1.06-0.44c-0.39,0-0.78,0.16-1.06,0.44l-8.48,8.48L19,19.1v4.24l5.85-5.85
		l6.36-6.36l5.66,5.66l-14.5,14.5l-0.35,0.35L20,33.66l-0.1,0.1L19.66,34L19,34.66v3.41c0,0.3-0.01,0.59-0.05,0.88L20,37.9l3-3
		l0.08-0.08L26.9,31l4.67-4.67l8.48-8.48C40.64,17.26,40.64,16.31,40.05,15.73z"/>
</g>
<g>
	<path d="M30.506,26.772c-0.384,0-0.768-0.146-1.061-0.439l-7.778-7.778c-0.586-0.586-0.586-1.535,0-2.121s1.535-0.586,2.121,0
		l7.778,7.778c0.586,0.586,0.586,1.535,0,2.121C31.273,26.626,30.89,26.772,30.506,26.772z"/>
</g>
<g>
	<path d="M45.5,31H29.72l-3,3H44v8H18.08c-0.36,0.72-0.82,1.4-1.36,2c-0.05,0.05-0.1,0.11-0.15,0.16c-0.11,0.12-0.23,0.24-0.36,0.36
		c-0.01,0.02-0.03,0.03-0.05,0.05C16,44.72,15.84,44.86,15.67,45H45.5c0.83,0,1.5-0.67,1.5-1.5v-11C47,31.67,46.33,31,45.5,31z
		 M19.9,33.76L19.66,34h0.48L19.9,33.76z"/>
</g>
<g>
	<path d="M33.5,45c-0.829,0-1.5-0.672-1.5-1.5v-11c0-0.828,0.671-1.5,1.5-1.5s1.5,0.672,1.5,1.5v11C35,44.328,34.329,45,33.5,45z"/>
</g>
<g>
</g>
</svg>