<svg xmlns="http://www.w3.org/2000/svg"  viewBox="0 0 48 48" width="48px" height="48px"><path fill="currentColor" d="M 19.5 4 A 1.50015 1.50015 0 1 0 19.5 7 L 22 7 L 22 41 L 19.5 41 A 1.50015 1.50015 0 1 0 19.5 44 L 23.253906 44 A 1.50015 1.50015 0 0 0 23.740234 44 L 27.5 44 A 1.50015 1.50015 0 1 0 27.5 41 L 25 41 L 25 7 L 27.5 7 A 1.50015 1.50015 0 1 0 27.5 4 L 19.5 4 z M 10.5 10 C 6.9280619 10 4 12.928062 4 16.5 L 4 31.5 C 4 35.071938 6.9280619 38 10.5 38 L 20 38 L 20 35 L 10.5 35 C 8.5499381 35 7 33.450062 7 31.5 L 7 16.5 C 7 14.549938 8.5499381 13 10.5 13 L 20 13 L 20 10 L 10.5 10 z M 27 10 L 27 13 L 36.5 13 C 38.450062 13 40 14.549938 40 16.5 L 40 31.5 C 40 33.450062 38.450062 35 36.5 35 L 27 35 L 27 38 L 36.5 38 C 40.071938 38 43 35.071938 43 31.5 L 43 16.5 C 43 12.928062 40.071938 10 36.5 10 L 27 10 z"/></svg>