<svg xmlns="http://www.w3.org/2000/svg"  viewBox="0 0 48 48" width="48px" height="48px"><path d="M 5.4707031 6 A 1.50015 1.50015 0 0 0 4 7.5 L 4 40.5 A 1.50015 1.50015 0 0 0 6.0566406 41.892578 C 6.0566406 41.892578 13.272727 39 24 39 C 34.727273 39 41.943359 41.892578 41.943359 41.892578 A 1.50015 1.50015 0 0 0 44 40.5 L 44 7.5 A 1.50015 1.50015 0 0 0 41.943359 6.1074219 C 41.943359 6.1074219 34.727273 9 24 9 C 13.272727 9 6.0566406 6.1074219 6.0566406 6.1074219 A 1.50015 1.50015 0 0 0 5.4707031 6 z M 7 9.4960938 C 9.3040875 10.279317 14.914206 12 24 12 C 33.085794 12 38.695912 10.279317 41 9.4960938 L 41 38.503906 C 40.516731 38.33963 39.80306 38.120669 39.027344 37.898438 L 26.839844 26.152344 A 1.50015 1.50015 0 0 0 26.835938 26.148438 C 26.048489 25.394647 25.024373 25.017555 24 25.017578 C 22.975627 25.017601 21.951166 25.394229 21.164062 26.148438 A 1.50015 1.50015 0 0 0 21.160156 26.152344 L 8.9726562 37.900391 C 8.1972367 38.122552 7.4831349 38.339675 7 38.503906 L 7 9.4960938 z M 30.5 17 C 29.119 17 28 18.119 28 19.5 C 28 20.881 29.119 22 30.5 22 C 31.881 22 33 20.881 33 19.5 C 33 18.119 31.881 17 30.5 17 z M 24.001953 28.001953 C 24.272809 28.002662 24.5435 28.107519 24.761719 28.316406 L 33.458984 36.699219 C 30.879849 36.299292 27.753591 36 24 36 C 20.245461 36 17.118556 36.299138 14.539062 36.699219 L 23.240234 28.314453 L 23.242188 28.3125 C 23.460076 28.104679 23.731097 28.001245 24.001953 28.001953 z"/></svg>